/* XPM */
static char * second_xpm[] = {
"64 64 64 1",
" 	c #000000",
".	c #060606",
"+	c #0A0A0A",
"@	c #0D0D0D",
"#	c #111111",
"$	c #141414",
"%	c #171717",
"&	c #1B1B1B",
"*	c #1F1F1F",
"=	c #232323",
"-	c #272727",
";	c #2A2A2A",
">	c #2D2D2D",
",	c #313131",
"'	c #353535",
")	c #383838",
"!	c #3B3B3B",
"~	c #404040",
"{	c #434343",
"]	c #474747",
"^	c #4B4B4B",
"/	c #4E4E4E",
"(	c #525252",
"_	c #555555",
":	c #585858",
"<	c #5D5D5D",
"[	c #606060",
"}	c #646464",
"|	c #686868",
"1	c #6B6B6B",
"2	c #6E6E6E",
"3	c #727272",
"4	c #767676",
"5	c #797979",
"6	c #7D7D7D",
"7	c #818181",
"8	c #858585",
"9	c #888888",
"0	c #8C8C8C",
"a	c #8F8F8F",
"b	c #929292",
"c	c #969696",
"d	c #9B9B9B",
"e	c #9E9E9E",
"f	c #A1A1A1",
"g	c #A5A5A5",
"h	c #A9A9A9",
"i	c #ACACAC",
"j	c #AFAFAF",
"k	c #B3B3B3",
"l	c #B7B7B7",
"m	c #BABABA",
"n	c #BEBEBE",
"o	c #C1C1C1",
"p	c #C4C4C4",
"q	c #C8C8C8",
"r	c #CDCDCD",
"s	c #D0D0D0",
"t	c #D3D3D3",
"u	c #D7D7D7",
"v	c #DBDBDB",
"w	c #DEDEDE",
"x	c #E2E2E2",
"y	c #E5E5E5",
"                                                                ",
"                                                                ",
"                                                                ",
"                                                                ",
"                                                                ",
"                                                                ",
"                                                                ",
" )<^'.                      +@@@@@@@++                    =202{@",
"[bc5[_ $^'             +%-~_39dffec94[!-#.            [5~@8a9}<{",
"263((^+14/.        .#>{<59dhnotttrmmjhec8:{;#        .3/{$34[~^{",
":}[{)!+&_'        *!:257adioruuwwvurnjhfeb51/>&.      %=. [[}],;",
"+!<_>@          #,(}469bdhkruwyyyxvupmjhfc053[)=@         .>';% ",
"               $'_2479acfinquyyyyyxusnkigeb742:~-$              ",
"  $<:*        @!_|4690bdgjnrtvyyyyxusokifd09631:{;#       +40<. ",
"  29}/       .;^[25690cfhjmqtuvxxxvsrnkjgcb9742}_!=       =71{@ ",
"  ):!,       &~:235890begjlnorstturqnmkhfcb97531<^>%       ({>. ",
"            .;/<135990bfgikmmnpqqpnmmliheb097422[_~=            ",
"            #'/<135990bcfgijkklmmmmmkihfda997531}:^,$           ",
"            #!(<235790acdfghijheffhjiigebb097531}:/!=           ",
"            #!(<135799acdcefccffdgecfgeca0887531|:(~;.          ",
"            #!/<13568890acb9defaafffaacba9977531[</{;.          ",
"            #!/:135678800b7bbcbba0ccb90a0987642|}:({;.          ",
"            #']:}234578998567767767877809876532|<_]~=           ",
"         @  #,~/<234566887967970b97870697765431}:(],& @         ",
"         {- @>){/}23555675788459965898577654321<(]);++|@        ",
"        .38@@-'~{_|234556547666456666746764321<_]~>& 'f-        ",
"        $2i(.*>)_{:12334552525244352635654321}:~]~-+$cg,.       ",
"        *^bb-%=>11]<||323331|155543123443331}_{__,&#:h|!.       ",
"        *{%d2,*'402]:|112222||23331}333323|[_~<6<->'f[,>.       ",
"        +-),df:_bhhd~_[||122121|}|2222211|[/^5jb},8g6&]*        ",
"         +'>-<>(8gmnd]]_[}[[|1|111111||}<(~4jni8:,({*{&         ",
"          +3>=%,}18gpdb5(/|53[<:::<[}}(^}9ipj8|_)=%>]-          ",
"           _<_$&;'~(aohpnh93ag5<<}50a7dllmme:)'>*%%3[#          ",
"           $,8=%%%%*'1dinqfkji9121higjkmid7]>&%%%$}<]           ",
"           #[;>-),*$*~(:5da}hf}}}45c}bg0|^<>%&=)>%_,/           ",
"           ;b}%!:[)=$)bsi_%%={)^^~)=%$;3rn<*%>/}/>{7|           ",
"           ~99=<672~=$&yy%%>:<0cc5:{!=$*yy%%>_572~'g2*          ",
"          .;|>-:0df8:!-**=~266gihc3|3:;***>{1bgc4!%:^&          ",
"            .@*!6fdjba4347bb8afjje637006455fcigb:;%..           ",
"              &*~6cfhhgmjihc8ahkjf949dgjlkjbff03;*#             ",
"              .%*)|8eghbfie85dijjg949dhheieeb5_=&#              ",
"               @$&=)|52<80|57bikkhb3595b:|76(;&$@               ",
"                @$%&=)}62:39h8imki8f834:b2^,*%#+.               ",
"                 @$%;/32'7:0khjlmihka)9:_82{;%#+                ",
"                 @%=!<}'<a:]6gklllg7])01,}1:,*%+                ",
"                  %;{_{2[08-,1jmmk2,&3a4/,_<~=%                 ",
"   ..             $,{(2<<5c9)>chid>&7b0|11'({;#            >^;  ",
"  ,a5!             ;~_(2a63a7%!1|{%1a02736{]~*            *09(@ ",
"  46]]             .']1)|ce57|$%%$!036f5~52],             $1^'+ ",
"  #(~&              #{2[-]6dcb^##!9bd9:>!64]@              @#+  ",
"                     =:9,:'~:||<[(|(]'(~}8}=                *%  ",
" ,</,.                ]756c4_]~~~~]:1ba466^.              {cb3}%",
"[bc5[_                &[9[/4ab52}39c8}~58};           @$+$707[:^",
"263((^#                !18|->)=>,--)=~393/           .64_#23:!{~",
":}[{)!+&2/             .![69546886536972:*            :/> ^[[]'&",
"+~<_>@ }1].             .{^|12|:_<222}:]@              .   @#@. ",
"       %)=               .&>,>%##$=>>>*.                        ",
"                                                                ",
"                                                                ",
"                                                                ",
"                                                                ",
"                                                                ",
"                                                                ",
"                                                                "};
