/* XPM */
static char * C:\Users\david\Dropbox\msx\screen0_demo\simple_xpm[] = {
"64 64 4 1",
" 	c #000100",
".	c #494B48",
"+	c #9C9E9B",
"@	c #F9FBF8",
"                                                                ",
"                                                                ",
"                                                                ",
"                                                                ",
"                                                                ",
"                                                                ",
"                                                                ",
"                                                                ",
"                                                                ",
"                                                                ",
"                                                                ",
"                                                                ",
"                                                                ",
"                                                                ",
"                                                                ",
"                                                                ",
"                                                                ",
"                                                                ",
"                                                                ",
"                                                                ",
"                                                                ",
"                                                                ",
"                                                                ",
"      .+@@@.        .@@@+       ++@@@@@@@@@@@@@@.      .@@@@+   ",
"      .@@@@@        @@@@@.    .@@@@@@@@@@@@@@@@@@      @@@@@    ",
"      +@@@@@.      .@@@@@+   .@@@@@@@@@@@@@@@@@@@+    +@@@@.    ",
"      +@@@@@+      +@@@@@+   +@@@+.          +@@@@.  .@@@@+     ",
"      @@@@@@@.    .@@@@@@@   @@@@             @@@@@  @@@@@      ",
"      @@@@+@@+    +@@+@@@@   @@@@             .@@@@++@@@@.      ",
"      @@@@ @@@.  .@@@ @@@@   @@@@+.            +@@@@@@@@+       ",
"      @@@@ +@@+  +@@+ @@@@   +@@@@@@++.         +@@@@@@+        ",
"      @@@@ .@@@  @@@. @@@@    @@@@@@@@@@+        @@@@@@         ",
"      @@@@  +@@++@@+  @@@@     +@@@@@@@@@@      .@@@@@@.        ",
"      @@@@  .@@@@@@.  @@@@       .+@@@@@@@+     @@@@@@@@        ",
"      @@@@   +@@@@+   @@@@           .@@@@@    +@@@@@@@@+       ",
"      @@@@   .@@@@.   @@@@             @@@@   .@@@@++@@@@.      ",
"      @@@@    @@@@    @@@@+            @@@@   @@@@@  @@@@@      ",
"      @@@@            @@@@@+         .+@@@+  +@@@@.  .@@@@+     ",
"      @@@@            +@@@@@@@@@@@@@@@@@@@. .@@@@+    +@@@@.    ",
"      @@@+            +@@@@@@@@@@@@@@@@@@.  @@@@+      @@@@@    ",
"      +@@.            .+@@@@@@@@@@@@@@++   +@@@@.      .@@@@+   ",
"                                                                ",
"                                                                ",
"                                                                ",
"                                                                ",
"                                                                ",
"                                                                ",
"                                                                ",
"                                                                ",
"                                                                ",
"                                                                ",
"                                                                ",
"                                                                ",
"                                                                ",
"                                                                ",
"                                                                ",
"                                                                ",
"                                                                ",
"                                                                ",
"                                                                ",
"                                                                ",
"                                                                ",
"                                                                ",
"                                                                "};
